<svg xmlns="http://www.w3.org/2000/svg" viewBox="0 0 60 60" width="512" height="512"><path d="M5 10h3v40H5zm47 0h3v40h-3zm5 4h3v32h-3zM0 14h3v32H0zm10 40h40V6H10v48zm9.5-18c1.746 0 3.331.642 4.5 1.68V18c0-.492.358-.911.844-.987l19-3a.99.99 0 0 1 .805.228A.995.995 0 0 1 45 15v21c0 3.309-2.916 6-6.5 6S32 39.309 32 36s2.916-6 6.5-6c1.746 0 3.331.642 4.5 1.68v-9.51l-17 2.684v17.248c0 .013-.007.025-.008.038C25.911 45.383 23.033 48 19.5 48c-3.584 0-6.5-2.691-6.5-6s2.916-6 6.5-6z" fill="#fafafa"/></svg>