<svg xmlns="http://www.w3.org/2000/svg" xmlns:xlink="http://www.w3.org/1999/xlink" version="1.1" id="Capa_1" x="0px" y="0px" viewBox="0 0 60 60" style="enable-background:new 0 0 60 60;" xml:space="preserve" width="512px" height="512px">
<g>
	<rect x="5" y="10" width="3" height="40" fill="#444444"/>
	<rect x="52" y="10" width="3" height="40" fill="#444444"/>
	<rect x="57" y="14" width="3" height="32" fill="#444444"/>
	<rect y="14" width="3" height="32" fill="#444444"/>
	<path d="M10,54h40V6H10V54z M19.5,36c1.746,0,3.331,0.642,4.5,1.68V24v-2.714V18c0-0.492,0.358-0.911,0.844-0.987l19-3   c0.29-0.047,0.583,0.037,0.805,0.228C44.872,14.43,45,14.708,45,15v1v5v15c0,3.309-2.916,6-6.5,6S32,39.309,32,36s2.916-6,6.5-6   c1.746,0,3.331,0.642,4.5,1.68V22.17l-17,2.684v17.248c0,0.013-0.007,0.025-0.008,0.038C25.911,45.383,23.033,48,19.5,48   c-3.584,0-6.5-2.691-6.5-6S15.916,36,19.5,36z" fill="#444444"/>
</g>
</svg>
