<?xml version="1.0"?>
<svg xmlns="http://www.w3.org/2000/svg" xmlns:xlink="http://www.w3.org/1999/xlink" version="1.1" viewBox="0 0 44 44" enable-background="new 0 0 44 44" width="512px" height="512px" class=""><g><g>
    <g>
      <path fill-rule="evenodd" d="m3,21h-2c-0.552,0-1,0.447-1,1 0,0.553 0.448,1 1,1h2c0.552,0 1-0.447 1-1 0-0.553-0.448-1-1-1zm40,0h-2c-0.552,0-1,0.447-1,1 0,0.553 0.448,1 1,1h2c0.552,0 1-0.447 1-1 0-0.553-0.448-1-1-1z" data-original="#000000" class="active-path" data-old_color="#FBF9F9" fill="#FBFBFB"/>
    </g>
  </g><g>
    <g>
      <path fill-rule="evenodd" d="m36,14c-0.552,0-1,0.447-1,1v14c0,0.553 0.448,1 1,1s1-0.447 1-1v-14c0-0.553-0.448-1-1-1zm-20,0c-0.552,0-1,0.447-1,1v14c0,0.553 0.448,1 1,1s1-0.447 1-1v-14c0-0.553-0.448-1-1-1zm-8,4c-0.552,0-1,0.447-1,1v6c0,0.553 0.448,1 1,1s1-0.447 1-1v-6c0-0.553-0.448-1-1-1zm24-8c-0.552,0-1,0.447-1,1v22c0,0.553 0.448,1 1,1s1-0.447 1-1v-22c0-0.553-0.448-1-1-1zm-8,0c-0.552,0-1,0.447-1,1v22c0,0.553 0.448,1 1,1s1-0.447 1-1v-22c0-0.553-0.448-1-1-1zm-12,0c-0.552,0-1,0.447-1,1v22c0,0.553 0.448,1 1,1s1-0.447 1-1v-22c0-0.553-0.448-1-1-1zm16-4c-0.552,0-1,0.447-1,1v30c0,0.553 0.448,1 1,1s1-0.447 1-1v-30c0-0.553-0.448-1-1-1zm-8,0c-0.552,0-1,0.447-1,1v30c0,0.553 0.448,1 1,1s1-0.447 1-1v-30c0-0.553-0.448-1-1-1z" data-original="#000000" class="active-path" data-old_color="#FBF9F9" fill="#FBFBFB"/>
    </g>
  </g></g> </svg>
