<svg xmlns="http://www.w3.org/2000/svg" viewBox="0 0 24.269 24.269" width="512" height="512"><g fill="#444"><path d="M7.028 1.242v3.003a9.472 9.472 0 0 1 1.358-.109c1.728 0 3.344.47 4.738 1.279h11.145V1.242H7.028zM17.538 11.208h6.73V7.033h-9.072a9.45 9.45 0 0 1 2.342 4.175zM17.856 13.607a9.48 9.48 0 0 1-.678 3.51h7.09v-4.174h-6.445c.015.22.033.44.033.664zM9.374 23.028h14.895v-4.174H16.27a9.47 9.47 0 0 1-6.896 4.174z"/><path d="M16.77 13.447c0-4.629-3.752-8.383-8.384-8.383a8.385 8.385 0 1 0 0 16.768 8.383 8.383 0 0 0 8.384-8.385zM5.439 18.315c-.21-.849.512-1.764 1.617-2.038.5-.123.986-.1 1.395.046V6.942s.056-.412.599-.479c0 0-.008.471 2.841 2.46 1.459 1.125 1.454 2.661 1.454 2.661-1.897-2.977-3.837-2.871-3.837-2.871l-.025 8.906H9.48c-.005.751-.683 1.486-1.655 1.729-1.105.277-2.263-.249-2.386-1.033z"/></g></svg>