<svg xmlns="http://www.w3.org/2000/svg" viewBox="0 0 420 420" width="512" height="512"><g fill="#444"><path d="M210 21c104.216 0 189 84.784 189 189s-84.784 189-189 189S21 314.216 21 210 105.784 21 210 21m0-21C94.031 0 0 94.024 0 210s94.031 210 210 210 210-94.024 210-210S325.969 0 210 0z"/><path d="M129.5 143.941v132.125c0 19.25 15.75 35 35 35s35-15.75 35-35v-27.615l55.853 36.554C274.687 297.647 290.5 289.1 290.5 266V147.875c0-23.1-15.792-31.612-35.084-18.914L199.5 165.76v-21.819c0-19.25-15.75-35-35-35s-35 15.75-35 35zm21 0c0-7.7 6.3-14 14-14s14 6.3 14 14v48.209c0 6.909 5.264 9.1 11.697 4.865l67.606-44.478c6.433-4.228 11.697-1.393 11.697 6.3v96.327c0 7.7-5.271 10.549-11.718 6.335l-67.564-44.226c-6.447-4.214-11.718-2.016-11.718 4.886v53.907c0 7.7-6.3 14-14 14s-14-6.3-14-14V143.941z"/></g></svg>