<svg xmlns="http://www.w3.org/2000/svg" xmlns:xlink="http://www.w3.org/1999/xlink" version="1.1" id="Capa_1" x="0px" y="0px" viewBox="0 0 420 420" style="enable-background:new 0 0 420 420;" xml:space="preserve" width="512px" height="512px">
<g>
	<path d="M210,21c104.216,0,189,84.784,189,189s-84.784,189-189,189S21,314.216,21,210S105.784,21,210,21 M210,0   C94.031,0,0,94.024,0,210s94.031,210,210,210s210-94.024,210-210S325.969,0,210,0L210,0z" fill="#444444"/>
	<path d="M255.5,108.941c-19.25,0-35,15.75-35,35v21.819l-55.916-36.799c-19.292-12.691-35.084-4.186-35.084,18.914V266   c0,23.1,15.813,31.647,35.147,18.998l55.853-36.554v27.615c0,19.25,15.75,35,35,35s35-15.75,35-35V143.941   C290.5,124.691,274.75,108.941,255.5,108.941z M269.5,183.995c0,7.7,0,18.137,0,23.191c0,5.054,0,15.491,0,23.191v45.689   c0,7.7-6.3,14-14,14s-14-6.3-14-14v-27.363c0-7.7,0-19.649,0-26.544c0-6.902-5.271-9.1-11.718-4.886l-67.564,44.226   c-6.447,4.214-11.718,1.358-11.718-6.335V158.83c0-7.7,5.264-10.535,11.697-6.3l67.606,44.478   c6.433,4.228,11.697,2.044,11.697-4.865c0-6.916,0-18.872,0-26.572v-21.637c0-7.7,6.3-14,14-14s14,6.3,14,14V183.995z" fill="#444444"/>
</g>
</svg>
