<svg xmlns="http://www.w3.org/2000/svg" viewBox="0 0 420 420" width="512" height="512"><g fill="#444"><path d="M210 21c104.216 0 189 84.784 189 189s-84.784 189-189 189S21 314.216 21 210 105.784 21 210 21m0-21C94.031 0 0 94.024 0 210s94.031 210 210 210 210-94.024 210-210S325.969 0 210 0z"/><path d="M255.5 108.941c-19.25 0-35 15.75-35 35v21.819l-55.916-36.799c-19.292-12.691-35.084-4.186-35.084 18.914V266c0 23.1 15.813 31.647 35.147 18.998l55.853-36.554v27.615c0 19.25 15.75 35 35 35s35-15.75 35-35V143.941c0-19.25-15.75-35-35-35zm14 75.054v92.071c0 7.7-6.3 14-14 14s-14-6.3-14-14v-53.907c0-6.902-5.271-9.1-11.718-4.886l-67.564 44.226c-6.447 4.214-11.718 1.358-11.718-6.335V158.83c0-7.7 5.264-10.535 11.697-6.3l67.606 44.478c6.433 4.228 11.697 2.044 11.697-4.865v-48.209c0-7.7 6.3-14 14-14s14 6.3 14 14v40.061z"/></g></svg>