<svg xmlns="http://www.w3.org/2000/svg" viewBox="0 0 420 420" width="512" height="512"><g fill="#444"><path d="M210 21c104.216 0 189 84.784 189 189s-84.784 189-189 189S21 314.216 21 210 105.784 21 210 21m0-21C94.031 0 0 94.024 0 210s94.031 210 210 210 210-94.024 210-210S325.969 0 210 0z"/><path d="M259 108.941c-19.25 0-35 15.75-35 35v132.125c0 19.25 15.75 35 35 35s35-15.75 35-35V143.941c0-19.25-15.75-35-35-35zm14 167.125c0 7.7-6.3 14-14 14s-14-6.3-14-14V143.941c0-7.7 6.3-14 14-14s14 6.3 14 14v132.125zM161 108.941c-19.25 0-35 15.75-35 35v132.125c0 19.25 15.75 35 35 35s35-15.75 35-35V143.941c0-19.25-15.75-35-35-35zm14 167.125c0 7.7-6.3 14-14 14s-14-6.3-14-14V143.941c0-7.7 6.3-14 14-14s14 6.3 14 14v132.125z"/></g></svg>