<svg xmlns="http://www.w3.org/2000/svg" xmlns:xlink="http://www.w3.org/1999/xlink" version="1.1" id="Capa_1" x="0px" y="0px" viewBox="0 0 420 420" style="enable-background:new 0 0 420 420;" xml:space="preserve" width="512px" height="512px">
<g>
	<path d="M210,21c104.216,0,189,84.784,189,189s-84.784,189-189,189S21,314.216,21,210S105.784,21,210,21 M210,0   C94.031,0,0,94.024,0,210s94.031,210,210,210s210-94.024,210-210S325.969,0,210,0L210,0z" fill="#444444"/>
	<g>
		<path d="M259,108.941c-19.25,0-35,15.75-35,35v132.125c0,19.25,15.75,35,35,35s35-15.75,35-35V143.941    C294,124.691,278.25,108.941,259,108.941z M273,276.066c0,7.7-6.3,14-14,14s-14-6.3-14-14V143.941c0-7.7,6.3-14,14-14    s14,6.3,14,14V276.066z" fill="#444444"/>
		<path d="M161,108.941c-19.25,0-35,15.75-35,35v132.125c0,19.25,15.75,35,35,35s35-15.75,35-35V143.941    C196,124.691,180.25,108.941,161,108.941z M175,276.066c0,7.7-6.3,14-14,14s-14-6.3-14-14V143.941c0-7.7,6.3-14,14-14    s14,6.3,14,14V276.066z" fill="#444444"/>
	</g>
</g>
</svg>
